<svg xmlns="http://www.w3.org/2000/svg" width="35" height="35" fill="none" viewBox="0 0 35 35"><path fill="#F2F2F2" d="M1.65527 18.8394H33.1553V15.8394H1.65527V18.8394ZM17.4053 31.5894C9.53522 31.5894 3.15527 25.2094 3.15527 17.3394H0.155273C0.155273 26.8663 7.87836 34.5894 17.4053 34.5894V31.5894ZM3.15527 17.3394C3.15527 9.4693 9.53522 3.08936 17.4053 3.08936V0.0893555C7.87836 0.0893555 0.155273 7.81244 0.155273 17.3394H3.15527ZM17.4053 3.08936C25.2753 3.08936 31.6553 9.4693 31.6553 17.3394H34.6553C34.6553 7.81244 26.9322 0.0893555 17.4053 0.0893555V3.08936ZM31.6553 17.3394C31.6553 25.2094 25.2753 31.5894 17.4053 31.5894V34.5894C26.9322 34.5894 34.6553 26.8663 34.6553 17.3394H31.6553ZM17.4053 31.5894C16.9268 31.5894 16.3581 31.3774 15.7146 30.765C15.0634 30.1453 14.4087 29.1776 13.8262 27.8671C12.663 25.2498 11.9053 21.529 11.9053 17.3394H8.90527C8.90527 21.8482 9.71454 26.0024 11.0848 29.0855C11.7691 30.6252 12.6228 31.964 13.6465 32.9382C14.6779 33.9198 15.9507 34.5894 17.4053 34.5894V31.5894ZM11.9053 17.3394C11.9053 13.1497 12.663 9.4289 13.8262 6.81163C14.4087 5.5011 15.0634 4.53341 15.7146 3.91366C16.3581 3.30126 16.9268 3.08936 17.4053 3.08936V0.0893555C15.9507 0.0893555 14.6779 0.758886 13.6465 1.74048C12.6228 2.71471 11.7691 4.05355 11.0848 5.59322C9.71454 8.67633 8.90527 12.8305 8.90527 17.3394H11.9053ZM17.4053 3.08936C17.8837 3.08936 18.4524 3.30126 19.0959 3.91366C19.7471 4.53341 20.4018 5.5011 20.9843 6.81163C22.1475 9.4289 22.9053 13.1497 22.9053 17.3394H25.9053C25.9053 12.8305 25.096 8.67633 23.7257 5.59322C23.0414 4.05355 22.1878 2.71471 21.1641 1.74048C20.1326 0.758886 18.8598 0.0893555 17.4053 0.0893555V3.08936ZM22.9053 17.3394C22.9053 21.529 22.1475 25.2498 20.9843 27.8671C20.4018 29.1776 19.7471 30.1453 19.0959 30.765C18.4524 31.3774 17.8837 31.5894 17.4053 31.5894V34.5894C18.8598 34.5894 20.1326 33.9198 21.1641 32.9382C22.1878 31.964 23.0414 30.6252 23.7257 29.0855C25.096 26.0024 25.9053 21.8482 25.9053 17.3394H22.9053Z"/></svg>